<svg xmlns="http://www.w3.org/2000/svg" width="96" height="96" viewBox="0 0 96 96" fill="none">
  <defs>
    <linearGradient id="houston-gradient" x1="24" y1="24" x2="72" y2="72" gradientUnits="userSpaceOnUse">
      <stop stop-color="#3b82f6"/>
      <stop offset="1" stop-color="#a855f7"/>
    </linearGradient>
  </defs>
  <circle cx="48" cy="48" r="44" fill="#312e81"/>
  <path d="M26 50h7a5 5 0 0 1 5 5v8a5 5 0 0 1-5 5h-2a5 5 0 0 1-5-5V50Zm0 0a22 22 0 1 1 44 0m0 0v13a5 5 0 0 1-5 5h-2a5 5 0 0 1-5-5v-8a5 5 0 0 1 5-5h7Z" stroke="url(#houston-gradient)" stroke-width="5" stroke-linecap="round" stroke-linejoin="round"/>
  <path d="M70 63v5a10 10 0 0 1-10 10H48" stroke="url(#houston-gradient)" stroke-width="5" stroke-linecap="round"/>
  <path d="m65 27 3 9 9 3-9 3-3 9-3-9-9-3 9-3 3-9Z" fill="white"/>
  <path d="m51 19 1.5 5 5 1.5-5 1.5-1.5 5-1.5-5-5-1.5 5-1.5 1.5-5Z" fill="white"/>
</svg>
